<svg xmlns="http://www.w3.org/2000/svg" width="1129" height="663" viewBox="0 0 1129 663">
  <title>Focus on What Matters</title>
  <circle cx="321" cy="321" r="321" fill="#f2f2f2" />
  <ellipse cx="559" cy="635.49998" rx="514" ry="27.50002" fill="#3f3d56" />
  <ellipse cx="558" cy="627" rx="460" ry="22" opacity="0.2" />
  <rect x="131" y="152.5" width="840" height="50" fill="#3f3d56" />
  <path d="M166.5,727.3299A21.67009,21.67009,0,0,0,188.1701,749H984.8299A21.67009,21.67009,0,0,0,1006.5,727.3299V296h-840Z" transform="translate(-35.5 -118.5)" fill="#3f3d56" />
  <path d="M984.8299,236H188.1701A21.67009,21.67009,0,0,0,166.5,257.6701V296h840V257.6701A21.67009,21.67009,0,0,0,984.8299,236Z" transform="translate(-35.5 -118.5)" fill="#3f3d56" />
  <path d="M984.8299,236H188.1701A21.67009,21.67009,0,0,0,166.5,257.6701V296h840V257.6701A21.67009,21.67009,0,0,0,984.8299,236Z" transform="translate(-35.5 -118.5)" opacity="0.2" />
  <circle cx="181" cy="147.5" r="13" fill="#3f3d56" />
  <circle cx="217" cy="147.5" r="13" fill="#3f3d56" />
  <circle cx="253" cy="147.5" r="13" fill="#3f3d56" />
  <rect x="168" y="213.5" width="337" height="386" rx="5.33505" fill="#606060" />
  <rect x="603" y="272.5" width="284" height="22" rx="5.47638" fill="#2e8555" />
  <rect x="537" y="352.5" width="416" height="15" rx="5.47638" fill="#2e8555" />
  <rect x="537" y="396.5" width="416" height="15" rx="5.47638" fill="#2e8555" />
  <rect x="537" y="440.5" width="416" height="15" rx="5.47638" fill="#2e8555" />
  <rect x="537" y="484.5" width="416" height="15" rx="5.47638" fill="#2e8555" />
  <rect x="865" y="552.5" width="88" height="26" rx="7.02756" fill="#3ecc5f" />
  <path d="M1088.60287,624.61594a30.11371,30.11371,0,0,0,3.98291-15.266c0-13.79652-8.54358-24.98081-19.08256-24.98081s-19.08256,11.18429-19.08256,24.98081a30.11411,30.11411,0,0,0,3.98291,15.266,31.248,31.248,0,0,0,0,30.53213,31.248,31.248,0,0,0,0,30.53208,31.248,31.248,0,0,0,0,30.53208,30.11408,30.11408,0,0,0-3.98291,15.266c0,13.79652,8.54353,24.98081,19.08256,24.98081s19.08256-11.18429,19.08256-24.98081a30.11368,30.11368,0,0,0-3.98291-15.266,31.248,31.248,0,0,0,0-30.53208,31.248,31.248,0,0,0,0-30.53208,31.248,31.248,0,0,0,0-30.53213Z" transform="translate(-35.5 -118.5)" fill="#3f3d56" />
  <ellipse cx="1038.00321" cy="460.31783" rx="19.08256" ry="24.9808" fill="#3f3d56" />
  <ellipse cx="1038.00321" cy="429.78574" rx="19.08256" ry="24.9808" fill="#3f3d56" />
  <path d="M1144.93871,339.34489a91.61081,91.61081,0,0,0,7.10658-10.46092l-50.141-8.23491,54.22885.4033a91.566,91.566,0,0,0,1.74556-72.42605l-72.75449,37.74139,67.09658-49.32086a91.41255,91.41255,0,1,0-150.971,102.29805,91.45842,91.45842,0,0,0-10.42451,16.66946l65.0866,33.81447-69.40046-23.292a91.46011,91.46011,0,0,0,14.73837,85.83669,91.40575,91.40575,0,1,0,143.68892,0,91.41808,91.41808,0,0,0,0-113.02862Z" transform="translate(-35.5 -118.5)" fill="#3ecc5f" fill-rule="evenodd" />
  <!-- <path d="M981.6885,395.8592a91.01343,91.01343,0,0,0,19.56129,56.51431,91.40575,91.40575,0,1,0,143.68892,0C1157.18982,436.82067,981.6885,385.60008,981.6885,395.8592Z" transform="translate(-35.5 -118.5)" opacity="0.1" />
  <path d="M365.62,461.43628H477.094v45.12043H365.62Z" transform="translate(-35.5 -118.5)" fill="#fff" fill-rule="evenodd" />
  <path d="M264.76252,608.74122a26.50931,26.50931,0,0,1-22.96231-13.27072,26.50976,26.50976,0,0,0,22.96231,39.81215H291.304V608.74122Z" transform="translate(-35.5 -118.5)" fill="#3ecc5f" fill-rule="evenodd" />
  <path d="M384.17242,468.57061l92.92155-5.80726V449.49263a26.54091,26.54091,0,0,0-26.54143-26.54143H331.1161l-3.31768-5.74622a3.83043,3.83043,0,0,0-6.63536,0l-3.31768,5.74622-3.31767-5.74622a3.83043,3.83043,0,0,0-6.63536,0l-3.31768,5.74622L301.257,417.205a3.83043,3.83043,0,0,0-6.63536,0L291.304,422.9512c-.02919,0-.05573.004-.08625.004l-5.49674-5.49541a3.8293,3.8293,0,0,0-6.4071,1.71723l-1.81676,6.77338L270.607,424.1031a3.82993,3.82993,0,0,0-4.6912,4.69253l1.84463,6.89148-6.77072,1.81411a3.8315,3.8315,0,0,0-1.71988,6.40975l5.49673,5.49673c0,.02787-.004.05574-.004.08493l-5.74622,3.31768a3.83043,3.83043,0,0,0,0,6.63536l5.74621,3.31768L259.0163,466.081a3.83043,3.83043,0,0,0,0,6.63536l5.74622,3.31768-5.74622,3.31767a3.83043,3.83043,0,0,0,0,6.63536l5.74622,3.31768-5.74622,3.31768a3.83043,3.83043,0,0,0,0,6.63536l5.74622,3.31768-5.74622,3.31767a3.83043,3.83043,0,0,0,0,6.63536l5.74622,3.31768-5.74622,3.31768a3.83043,3.83043,0,0,0,0,6.63536l5.74622,3.31768-5.74622,3.31768a3.83042,3.83042,0,0,0,0,6.63535l5.74622,3.31768-5.74622,3.31768a3.83043,3.83043,0,0,0,0,6.63536l5.74622,3.31768L259.0163,558.976a3.83042,3.83042,0,0,0,0,6.63535l5.74622,3.31768-5.74622,3.31768a3.83043,3.83043,0,0,0,0,6.63536l5.74622,3.31768-5.74622,3.31768a3.83042,3.83042,0,0,0,0,6.63535l5.74622,3.31768-5.74622,3.31768a3.83043,3.83043,0,0,0,0,6.63536l5.74622,3.31768A26.54091,26.54091,0,0,0,291.304,635.28265H450.55254A26.5409,26.5409,0,0,0,477.094,608.74122V502.5755l-92.92155-5.80727a14.12639,14.12639,0,0,1,0-28.19762" transform="translate(-35.5 -118.5)" fill="#3ecc5f" fill-rule="evenodd" />
  <path d="M424.01111,635.28265h39.81214V582.19979H424.01111Z" transform="translate(-35.5 -118.5)" fill="#3ecc5f" fill-rule="evenodd" />
  <path d="M490.36468,602.10586a6.60242,6.60242,0,0,0-.848.08493c-.05042-.19906-.09821-.39945-.15393-.59852A6.62668,6.62668,0,1,0,482.80568,590.21q-.2203-.22491-.44457-.44589a6.62391,6.62391,0,1,0-11.39689-6.56369c-.1964-.05575-.39414-.10218-.59056-.15262a6.63957,6.63957,0,1,0-13.10086,0c-.1964.05042-.39414.09687-.59056.15262a6.62767,6.62767,0,1,0-11.39688,6.56369,26.52754,26.52754,0,1,0,44.23127,25.52756,6.6211,6.6211,0,1,0,.848-13.18579" transform="translate(-35.5 -118.5)" fill="#44d860" fill-rule="evenodd" />
  <path d="M437.28182,555.65836H477.094V529.11693H437.28182Z" transform="translate(-35.5 -118.5)" fill="#3ecc5f" fill-rule="evenodd" />
  <path d="M490.36468,545.70532a3.31768,3.31768,0,0,0,0-6.63536,3.41133,3.41133,0,0,0-.42333.04247c-.02655-.09953-.04911-.19907-.077-.29859a3.319,3.319,0,0,0-1.278-6.37923,3.28174,3.28174,0,0,0-2.00122.68742q-.10947-.11346-.22294-.22295a3.282,3.282,0,0,0,.67149-1.98265,3.31768,3.31768,0,0,0-6.37-1.2992,13.27078,13.27078,0,1,0,0,25.54082,3.31768,3.31768,0,0,0,6.37-1.2992,3.282,3.282,0,0,0-.67149-1.98265q.11347-.10947.22294-.22294a3.28174,3.28174,0,0,0,2.00122.68742,3.31768,3.31768,0,0,0,1.278-6.37923c.02786-.0982.05042-.19907.077-.29859a3.41325,3.41325,0,0,0,.42333.04246" transform="translate(-35.5 -118.5)" fill="#44d860" fill-rule="evenodd" />
  <path d="M317.84538,466.081a3.31768,3.31768,0,0,1-3.31767-3.31768,9.953,9.953,0,1,0-19.90608,0,3.31768,3.31768,0,1,1-6.63535,0,16.58839,16.58839,0,1,1,33.17678,0,3.31768,3.31768,0,0,1-3.31768,3.31768" transform="translate(-35.5 -118.5)" fill-rule="evenodd" />
  <path d="M370.92825,635.28265h79.62429A26.5409,26.5409,0,0,0,477.094,608.74122v-92.895H397.46968a26.54091,26.54091,0,0,0-26.54143,26.54143Z" transform="translate(-35.5 -118.5)" fill="#ffff50" fill-rule="evenodd" />
  <path d="M457.21444,556.98543H390.80778a1.32707,1.32707,0,0,1,0-2.65414h66.40666a1.32707,1.32707,0,0,1,0,2.65414m0,26.54143H390.80778a1.32707,1.32707,0,1,1,0-2.65414h66.40666a1.32707,1.32707,0,0,1,0,2.65414m0,26.54143H390.80778a1.32707,1.32707,0,1,1,0-2.65414h66.40666a1.32707,1.32707,0,0,1,0,2.65414m0-66.10674H390.80778a1.32707,1.32707,0,0,1,0-2.65414h66.40666a1.32707,1.32707,0,0,1,0,2.65414m0,26.29459H390.80778a1.32707,1.32707,0,0,1,0-2.65414h66.40666a1.32707,1.32707,0,0,1,0,2.65414m0,26.54143H390.80778a1.32707,1.32707,0,0,1,0-2.65414h66.40666a1.32707,1.32707,0,0,1,0,2.65414M477.094,474.19076c-.01592,0-.0292-.008-.04512-.00663-4.10064.13934-6.04083,4.24132-7.75274,7.86024-1.78623,3.78215-3.16771,6.24122-5.43171,6.16691-2.50685-.09024-3.94007-2.92222-5.45825-5.91874-1.74377-3.44243-3.73438-7.34667-7.91333-7.20069-4.04227.138-5.98907,3.70784-7.70631,6.857-1.82738,3.35484-3.07084,5.39455-5.46887,5.30033-2.55727-.09289-3.91619-2.39536-5.48877-5.06013-1.75306-2.96733-3.77951-6.30359-7.8775-6.18946-3.97326.13669-5.92537,3.16507-7.64791,5.83912-1.82207,2.82666-3.09872,4.5492-5.52725,4.447-2.61832-.09289-3.9706-2.00388-5.53522-4.21611-1.757-2.4856-3.737-5.299-7.82308-5.16231-3.88567.13271-5.83779,2.61434-7.559,4.80135-1.635,2.07555-2.9116,3.71846-5.61218,3.615a1.32793,1.32793,0,1,0-.09555,2.65414c4.00377.134,6.03154-2.38873,7.79257-4.6275,1.562-1.9853,2.91027-3.69855,5.56441-3.78879,2.55594-.10882,3.75429,1.47968,5.56707,4.04093,1.7212,2.43385,3.67465,5.19416,7.60545,5.33616,4.11789.138,6.09921-2.93946,7.8536-5.66261,1.56861-2.43385,2.92221-4.53461,5.50734-4.62352,2.37944-.08892,3.67466,1.79154,5.50072,4.885,1.72121,2.91557,3.67069,6.21865,7.67977,6.36463,4.14709.14332,6.14965-3.47693,7.89475-6.68181,1.51155-2.77092,2.93814-5.38791,5.46621-5.4755,2.37944-.05573,3.62025,2.11668,5.45558,5.74622,1.71459,3.388,3.65875,7.22591,7.73019,7.37321l.22429.004c4.06614,0,5.99571-4.08074,7.70364-7.68905,1.51154-3.19825,2.94211-6.21069,5.3972-6.33411Z" transform="translate(-35.5 -118.5)" fill-rule="evenodd" />
  <path d="M344.38682,635.28265h53.08286V582.19979H344.38682Z" transform="translate(-35.5 -118.5)" fill="#3ecc5f" fill-rule="evenodd" />
  <path d="M424.01111,602.10586a6.60242,6.60242,0,0,0-.848.08493c-.05042-.19906-.09821-.39945-.15394-.59852A6.62667,6.62667,0,1,0,416.45211,590.21q-.2203-.22491-.44458-.44589a6.62391,6.62391,0,1,0-11.39689-6.56369c-.1964-.05575-.39413-.10218-.59054-.15262a6.63957,6.63957,0,1,0-13.10084,0c-.19641.05042-.39414.09687-.59055.15262a6.62767,6.62767,0,1,0-11.39689,6.56369,26.52755,26.52755,0,1,0,44.2313,25.52756,6.6211,6.6211,0,1,0,.848-13.18579" transform="translate(-35.5 -118.5)" fill="#44d860" fill-rule="evenodd" />
  <path d="M344.38682,555.65836h53.08286V529.11693H344.38682Z" transform="translate(-35.5 -118.5)" fill="#3ecc5f" fill-rule="evenodd" />
  <path d="M410.74039,545.70532a3.31768,3.31768,0,1,0,0-6.63536,3.41133,3.41133,0,0,0-.42333.04247c-.02655-.09953-.04911-.19907-.077-.29859a3.319,3.319,0,0,0-1.278-6.37923,3.28174,3.28174,0,0,0-2.00122.68742q-.10947-.11346-.22294-.22295a3.282,3.282,0,0,0,.67149-1.98265,3.31768,3.31768,0,0,0-6.37-1.2992,13.27078,13.27078,0,1,0,0,25.54082,3.31768,3.31768,0,0,0,6.37-1.2992,3.282,3.282,0,0,0-.67149-1.98265q.11347-.10947.22294-.22294a3.28174,3.28174,0,0,0,2.00122.68742,3.31768,3.31768,0,0,0,1.278-6.37923c.02786-.0982.05042-.19907.077-.29859a3.41325,3.41325,0,0,0,.42333.04246" transform="translate(-35.5 -118.5)" fill="#44d860" fill-rule="evenodd" />
  <path d="M424.01111,447.8338a3.60349,3.60349,0,0,1-.65028-.06636,3.34415,3.34415,0,0,1-.62372-.18579,3.44679,3.44679,0,0,1-.572-.30522,5.02708,5.02708,0,0,1-.50429-.4114,3.88726,3.88726,0,0,1-.41007-.50428,3.27532,3.27532,0,0,1-.55737-1.84463,3.60248,3.60248,0,0,1,.06636-.65027,3.82638,3.82638,0,0,1,.18447-.62373,3.48858,3.48858,0,0,1,.30656-.57064,3.197,3.197,0,0,1,.91436-.91568,3.44685,3.44685,0,0,1,.572-.30523,3.344,3.344,0,0,1,.62372-.18578,3.06907,3.06907,0,0,1,1.30053,0,3.22332,3.22332,0,0,1,1.19436.491,5.02835,5.02835,0,0,1,.50429.41139,4.8801,4.8801,0,0,1,.41139.50429,3.38246,3.38246,0,0,1,.30522.57064,3.47806,3.47806,0,0,1,.25215,1.274A3.36394,3.36394,0,0,1,426.36,446.865a5.02708,5.02708,0,0,1-.50429.4114,3.3057,3.3057,0,0,1-1.84463.55737m26.54143-1.65884a3.38754,3.38754,0,0,1-2.35024-.96877,5.04185,5.04185,0,0,1-.41007-.50428,3.27532,3.27532,0,0,1-.55737-1.84463,3.38659,3.38659,0,0,1,.96744-2.34892,5.02559,5.02559,0,0,1,.50429-.41139,3.44685,3.44685,0,0,1,.572-.30523,3.3432,3.3432,0,0,1,.62373-.18579,3.06952,3.06952,0,0,1,1.30052,0,3.22356,3.22356,0,0,1,1.19436.491,5.02559,5.02559,0,0,1,.50429.41139,3.38792,3.38792,0,0,1,.96876,2.34892,3.72635,3.72635,0,0,1-.06636.65026,3.37387,3.37387,0,0,1-.18579.62373,4.71469,4.71469,0,0,1-.30522.57064,4.8801,4.8801,0,0,1-.41139.50429,5.02559,5.02559,0,0,1-.50429.41139,3.30547,3.30547,0,0,1-1.84463.55737" transform="translate(-35.5 -118.5)" fill-rule="evenodd" /> -->
  <g id="layer-2" transform="translate(175, 255), scale(0.3)">
        <path
            d="M478.406 326.674C408.56 326.674 347.865 350.283 316.886 385.016C309.757 383.991 302.48 383.314 295.007 383.314C222.967 383.314 164.559 432.968 164.559 494.212C164.559 501.868 165.457 509.34 167.194 516.559C166.313 516.537 165.447 516.466 164.559 516.466C118.78 516.466 81.669 546.216 81.669 582.918C81.669 600.917 90.6155 617.224 105.111 629.19C99.9541 641.202 97.0213 654.025 97.0213 667.415C97.0213 733.122 164.372 786.391 247.449 786.391C283.725 786.391 316.983 776.222 342.963 759.309C378.951 784.552 431.991 800.598 491.276 800.598C541.638 800.598 587.407 788.962 622.153 770.018C647.948 780.37 677.878 786.392 709.946 786.391C793.994 786.391 864.148 745.632 880.384 691.433C925.886 683.204 959.719 652.676 959.719 616.16C959.719 588.887 940.845 564.923 912.344 551.1C908.616 509.275 883.871 474.807 850.66 462.116C837.191 403.84 779.322 360.008 709.946 360.008C682.152 360.008 656.308 367.174 634.319 379.352C601.991 347.777 544.343 326.674 478.406 326.674Z"
            fill="#437ed9" fill-rule="nonzero" opacity="1" stroke="#437ed9" stroke-linecap="butt"
            stroke-linejoin="round" stroke-opacity="0" stroke-width="10" />
        <g opacity="1">
            <path
                d="M692.125 260.312C593.385 260.313 513.344 340.718 513.344 439.906C513.344 525.283 572.703 596.597 652.188 614.844L652.188 684.719C652.187 691.759 657.897 697.438 664.938 697.438L730.719 697.438C737.759 697.438 743.469 691.759 743.469 684.719L743.469 611.906C817.177 589.739 870.906 521.163 870.906 439.906C870.906 340.718 790.865 260.312 692.125 260.312Z"
                fill="#fec027" fill-rule="nonzero" opacity="1" stroke="#437ed9" stroke-linecap="butt"
                stroke-linejoin="round" stroke-opacity="0" stroke-width="10" />
            <g opacity="1">
                <path
                    d="M786.145 226.14C785.273 225.732 784.199 226.122 783.253 226.946C783.205 226.988 783.156 227.025 783.108 227.069L782.505 227.717L764.801 246.526L764.421 246.923C763.972 247.372 763.548 247.886 763.235 248.555C762.385 250.37 762.49 252.201 763.341 253.171L763.295 253.232L767.228 257.261L767.54 257.571C767.589 257.626 767.641 257.678 767.696 257.727C767.829 257.844 767.931 258.001 768.094 258.077C768.749 258.384 769.514 258.226 770.261 257.806C770.303 257.782 770.347 257.783 770.389 257.757L770.428 257.748C770.543 257.676 770.643 257.55 770.755 257.464C770.768 257.454 770.778 257.436 770.791 257.426L793.057 238.975L793.654 238.489C794.283 237.989 794.871 237.355 795.287 236.465C796.312 234.277 796.015 231.966 794.609 231.307C794.588 231.297 794.561 231.311 794.54 231.302L786.174 226.154C786.164 226.149 786.155 226.145 786.145 226.14Z"
                    fill="#fec027" fill-rule="nonzero" opacity="1" stroke="#437ed9" stroke-linecap="butt"
                    stroke-linejoin="round" stroke-opacity="0" stroke-width="10" />
                <path
                    d="M746.725 202.705C745.422 202.727 744.348 203.788 743.686 205.28C743.653 205.357 743.614 205.427 743.582 205.506L743.234 206.598L732.863 238.44L732.638 239.115C732.358 239.891 732.147 240.726 732.163 241.679C732.207 244.264 733.421 246.326 735.032 246.967L735.012 247.064L742.187 249.5L742.75 249.682C742.842 249.717 742.937 249.748 743.032 249.773C743.263 249.834 743.481 249.957 743.724 249.953C744.702 249.937 745.539 249.32 746.198 248.41C746.236 248.358 746.289 248.334 746.325 248.28L746.368 248.247C746.464 248.099 746.511 247.895 746.596 247.732C746.606 247.713 746.607 247.687 746.617 247.668L762.749 213.653L763.186 212.75C763.654 211.813 763.993 210.745 763.972 209.478C763.92 206.361 762.187 203.852 760.085 203.887C760.054 203.887 760.03 203.919 759.999 203.92L746.768 202.704C746.754 202.704 746.74 202.705 746.725 202.705Z"
                    fill="#fec027" fill-rule="nonzero" opacity="1" stroke="#437ed9" stroke-linecap="butt"
                    stroke-linejoin="round" stroke-opacity="0" stroke-width="10" />
                <path
                    d="M632.614 214.754C633.339 214.441 634.287 214.969 635.151 215.924C635.195 215.973 635.24 216.016 635.284 216.067L635.842 216.801L652.227 238.133L652.577 238.584C652.991 239.097 653.387 239.672 653.698 240.393C654.541 242.349 654.563 244.206 653.891 245.095L653.934 245.162L650.8 248.805L650.551 249.084C650.511 249.134 650.47 249.181 650.426 249.224C650.319 249.328 650.24 249.476 650.105 249.534C649.561 249.769 648.893 249.516 648.225 248.998C648.187 248.968 648.15 248.964 648.112 248.932L648.077 248.918C647.974 248.831 647.88 248.69 647.779 248.589C647.767 248.577 647.757 248.557 647.746 248.545L627.46 227.032L626.916 226.464C626.345 225.877 625.8 225.159 625.387 224.201C624.371 221.843 624.484 219.518 625.653 219.014C625.67 219.007 625.694 219.024 625.711 219.018L632.59 214.764C632.598 214.76 632.606 214.757 632.614 214.754Z"
                    fill="#fec027" fill-rule="nonzero" opacity="1" stroke="#437ed9" stroke-linecap="butt"
                    stroke-linejoin="round" stroke-opacity="0" stroke-width="10" />
                <path
                    d="M677.03 197.459C678.444 197.71 679.449 198.925 679.94 200.483C679.966 200.563 679.997 200.637 680.019 200.719L680.23 201.836L686.64 234.428L686.783 235.12C686.968 235.919 687.07 236.763 686.906 237.681C686.464 240.171 684.828 241.948 682.978 242.284L682.985 242.38L674.811 243.467L674.171 243.544C674.065 243.562 673.958 243.575 673.851 243.582C673.59 243.6 673.334 243.681 673.07 243.634C672.009 243.446 671.194 242.702 670.616 241.706C670.583 241.649 670.528 241.617 670.497 241.558L670.456 241.519C670.374 241.359 670.354 241.154 670.286 240.981C670.279 240.962 670.281 240.935 670.274 240.916L657.932 205.206L657.594 204.258C657.229 203.27 657.023 202.177 657.24 200.957C657.774 197.955 660.041 195.837 662.321 196.242C662.355 196.248 662.377 196.282 662.41 196.289L676.983 197.45C676.999 197.453 677.014 197.456 677.03 197.459Z"
                    fill="#fec027" fill-rule="nonzero" opacity="1" stroke="#437ed9" stroke-linecap="butt"
                    stroke-linejoin="round" stroke-opacity="0" stroke-width="10" />
                <path
                    d="M723.803 185.567C725.197 186.207 725.804 187.963 725.743 190.031C725.74 190.137 725.745 190.238 725.738 190.346L725.547 191.796L720.208 234.166L720.101 235.066C720 236.112 719.794 237.194 719.282 238.308C717.894 241.331 715.514 243.185 713.444 243.18L713.416 243.303L704.415 242.787L703.713 242.736C703.595 242.734 703.477 242.726 703.362 242.711C703.081 242.673 702.781 242.716 702.521 242.596C701.475 242.115 700.893 240.994 700.654 239.613C700.64 239.533 700.595 239.481 700.584 239.4L700.556 239.341C700.528 239.121 700.583 238.859 700.576 238.627C700.576 238.601 700.588 238.569 700.588 238.542L700.842 190.897L700.839 189.629C700.82 188.305 701.009 186.887 701.69 185.406C703.363 181.762 706.534 179.625 708.782 180.658C708.815 180.673 708.825 180.721 708.857 180.738L723.757 185.546C723.773 185.553 723.787 185.56 723.803 185.567Z"
                    fill="#fec027" fill-rule="nonzero" opacity="1" stroke="#437ed9" stroke-linecap="butt"
                    stroke-linejoin="round" stroke-opacity="0" stroke-width="10" />
            </g>
            <g opacity="1" >
                <path
                    d="M672.499 292.328C672.499 286.584 676.892 281.928 682.312 281.928C687.731 281.928 692.125 286.584 692.125 292.328C692.125 298.071 687.731 302.728 682.312 302.728C676.892 302.728 672.499 298.071 672.499 292.328Z"
                    fill="#ffffff" fill-rule="nonzero" opacity="1" stroke="#0a1321" stroke-linecap="butt"
                    stroke-linejoin="round" stroke-opacity="0" stroke-width="0.1" />
                <path d="M682.046 292.348C682.046 292.348 603.781 289.864 557.888 371.419" fill="none" opacity="1"
                    stroke="#ffffff" stroke-linecap="butt" stroke-linejoin="round" stroke-width="20.7339"
                    />
            </g>
            <path
                d="M668.283 664.753C668.283 662.591 670.028 660.838 672.18 660.838L730.882 660.838C733.035 660.838 734.78 662.591 734.78 664.753L734.78 670.543C734.78 672.704 733.035 674.457 730.882 674.457L672.18 674.457C670.028 674.457 668.283 672.704 668.283 670.543L668.283 664.753Z"
                fill="#ffffff" fill-rule="nonzero" opacity="1" stroke="#437ed9" stroke-linecap="butt"
                stroke-linejoin="round" stroke-opacity="0.0127149" stroke-width="8.37886"
                />
            <path
                d="M668.283 636.465C668.283 634.303 670.028 632.55 672.18 632.55L730.882 632.55C733.035 632.55 734.78 634.303 734.78 636.465L734.78 642.255C734.78 644.417 733.035 646.169 730.882 646.169L672.18 646.169C670.028 646.169 668.283 644.417 668.283 642.255L668.283 636.465Z"
                fill="#ffffff" fill-rule="nonzero" opacity="1" stroke="#437ed9" stroke-linecap="butt"
                stroke-linejoin="round" stroke-opacity="0.0127149" stroke-width="8.37886"
                />
        </g>
        <g opacity="1" >
            <path
                d="M426.351 558.412C426.351 558.412 414.482 586.087 428.835 638.709C443.188 691.331 444.292 691.331 445.672 717.837C447.052 744.342 446.776 768.899 441.256 799.303C435.736 829.707 411.446 841.011 411.446 841.011"
                fill="#437ed9" fill-opacity="0" fill-rule="nonzero" opacity="1" stroke="#0a1321" stroke-linecap="butt"
                stroke-linejoin="round" stroke-width="8.76658" />
            <path
                d="M437.625 166.625C331.299 166.625 245.094 252.83 245.094 359.156C245.094 455.526 315.979 535.113 408.406 549.219L400.094 563.5C400.042 563.588 400.046 563.691 400 563.781C399.812 564.147 399.729 564.554 399.625 564.938C399.533 565.274 399.436 565.579 399.406 565.938C399.375 566.32 399.393 566.684 399.438 567.062C399.483 567.438 399.542 567.837 399.656 568.188C399.779 568.564 399.958 568.904 400.156 569.25C400.321 569.536 400.478 569.841 400.688 570.094C400.966 570.429 401.329 570.698 401.688 570.969C401.945 571.163 402.181 571.382 402.469 571.531C402.818 571.71 403.197 571.772 403.562 571.875C403.919 571.977 404.274 572.094 404.656 572.125C404.765 572.134 404.858 572.216 404.969 572.219L439.719 573.094C442.586 573.168 444.915 571.104 445.438 568.375C445.567 567.924 445.546 567.44 445.562 566.969C445.6 565.953 445.497 564.953 444.969 564L438.125 551.656C544.22 551.385 630.125 465.315 630.125 359.156C630.125 252.83 543.951 166.625 437.625 166.625Z"
                fill="#be3030" fill-rule="nonzero" opacity="1" stroke="#437ed9" stroke-linecap="butt"
                stroke-linejoin="round" stroke-opacity="0.0127149" stroke-width="8.37886" />
            <path
                d="M407.112 841.011C407.112 838.617 409.053 836.677 411.446 836.677C413.84 836.677 415.78 838.617 415.78 841.011C415.78 843.405 413.84 845.345 411.446 845.345C409.053 845.345 407.112 843.405 407.112 841.011Z"
                fill="#0a1321" fill-rule="nonzero" opacity="1" stroke="#0a1321" stroke-linecap="butt"
                stroke-linejoin="round" stroke-width="0.1" />
            <g opacity="1" >
                <path
                    d="M425.321 195.577C425.321 189.833 430.253 185.177 436.336 185.177C442.419 185.177 447.351 189.833 447.351 195.577C447.351 201.32 442.419 205.977 436.336 205.977C430.253 205.977 425.321 201.32 425.321 195.577Z"
                    fill="#ffffff" fill-rule="nonzero" opacity="1" stroke="#0a1321" stroke-linecap="butt"
                    stroke-linejoin="round" stroke-opacity="0" stroke-width="0.1" />
                <path d="M436.037 195.597C436.037 195.597 348.188 193.113 296.674 274.668" fill="none" opacity="1"
                    stroke="#ffffff" stroke-linecap="butt" stroke-linejoin="round" stroke-width="20.7339"
                    />
            </g>
            <path d="M296.715 237.173L330.378 263.462L325.089 270.235L291.426 243.947L296.715 237.173Z" fill="#be3030"
                fill-rule="nonzero" opacity="1" stroke="#437ed9" stroke-linecap="butt" stroke-linejoin="round"
                stroke-opacity="0.0127149" stroke-width="8.37886" />
        </g>
        <g opacity="0" >
            <path
                d="M167.166 641.594C95.8943 626.479 110.226 521.375 194.194 548.187C257.793 568.495 222.436 653.316 167.166 641.594Z"
                fill="none" opacity="1" stroke="#ffffff" stroke-linecap="round" stroke-linejoin="round"
                stroke-width="8.37886" />
            <path d="M221.004 541.137C192.053 555.516 310.371 525.853 316.719 557.382" fill="none" opacity="1"
                stroke="#ffffff" stroke-linecap="round" stroke-linejoin="round" stroke-width="8.37886"
                />
            <path
                d="M295.091 546.492C291.163 546.884 302.09 621.081 297.489 629.697C287.808 647.822 239.846 658.083 236.98 629.758"
                fill="none" opacity="1" stroke="#ffffff" stroke-linecap="round" stroke-linejoin="round"
                stroke-width="8.37886" />
            <path
                d="M126.899 673.649C123.16 667.299 134.527 669.836 139.058 669.937C206.633 671.438 276.927 663.203 344.297 658.803"
                fill="none" opacity="1" stroke="#ffffff" stroke-linecap="round" stroke-linejoin="round"
                stroke-width="8.37886" />
            <path
                d="M231.362 695.572C231.362 682.296 225.988 724.822 234.193 735.302C240.919 743.893 272.205 732.302 270.647 731.786"
                fill="none" opacity="1" stroke="#ffffff" stroke-linecap="round" stroke-linejoin="round"
                stroke-width="8.37886" />
            <path d="M287.636 735.302C287.516 735.361 291.588 675.913 306.394 683.267" fill="none" opacity="1"
                stroke="#ffffff" stroke-linecap="round" stroke-linejoin="round" stroke-width="8.37886"
                />
            <path d="M308.517 682.563C321.649 695.608 338.222 744.607 321.612 736.357" fill="none" opacity="1"
                stroke="#ffffff" stroke-linecap="round" stroke-linejoin="round" stroke-width="8.37886"
                />
            <path d="M292.591 717.371C294.232 714.11 323.033 707.348 319.135 709.284" fill="none" opacity="1"
                stroke="#ffffff" stroke-linecap="round" stroke-linejoin="round" stroke-width="8.37886"
                />
            <path d="M350.28 687.134C345.952 674.235 350.988 741.516 350.988 727.919" fill="none" opacity="1"
                stroke="#ffffff" stroke-linecap="round" stroke-linejoin="round" stroke-width="8.37886"
                />
            <path
                d="M350.216 687.183C342.669 677.598 386.565 681.941 386.297 694.106C385.912 711.515 346.292 707.711 350.669 704.311"
                fill="none" opacity="1" stroke="#ffffff" stroke-linecap="round" stroke-linejoin="round"
                stroke-width="8.37886" />
            <path
                d="M350.517 731.857C365.864 727.562 383.665 733.054 399.066 725.856C418.502 716.772 391.021 701.295 377.874 704.974"
                fill="none" opacity="1" stroke="#ffffff" stroke-linecap="round" stroke-linejoin="round"
                stroke-width="8.37886" />
            <path
                d="M396.051 672.216C396.051 668.535 398.95 665.551 402.526 665.551C406.103 665.551 409.002 668.535 409.002 672.216C409.002 675.898 406.103 678.882 402.526 678.882C398.95 678.882 396.051 675.898 396.051 672.216Z"
                fill="#0a1321" fill-opacity="0" fill-rule="nonzero" opacity="1" stroke="#ffffff" stroke-linecap="butt"
                stroke-linejoin="round" stroke-width="4.14581" />
            <path
                d="M372.254 642.701C372.254 635.936 377.581 630.453 384.152 630.453C390.724 630.453 396.051 635.936 396.051 642.701C396.051 649.465 390.724 654.949 384.152 654.949C377.581 654.949 372.254 649.465 372.254 642.701Z"
                fill="#0a1321" fill-opacity="0" fill-rule="nonzero" opacity="1" stroke="#ffffff" stroke-linecap="butt"
                stroke-linejoin="round" stroke-width="8.57161" />
            <path d="M108.102 691.901C124.961 695.3 198.462 682.543 206.494 692.825" fill="none" opacity="1"
                stroke="#ffffff" stroke-linecap="round" stroke-linejoin="round" stroke-width="8.57161"
                />
        </g>
    </g>
</svg>
